<svg xmlns="http://www.w3.org/2000/svg">
  <defs>
    <symbol id='icon-start' fill="none" viewBox="0 0 50 50">
        <circle cx="25" cy="25" r="20" fill="#E90516"/>
        <circle cx="25" cy="25" r="24" stroke="#F9F9F9" stroke-width="2"/>
    </symbol>
    <symbol id="icon-stop" fill="none" viewBox="0 0 50 50">
        <circle cx="25" cy="25" r="24" stroke="#F9F9F9" stroke-width="2"/>
        <rect width="20" height="20" x="15" y="15" fill="#E90516" rx="3"/>
    </symbol>
    <symbol id="icon-sand-clock" fill="none" viewBox="0 0 20 20">
        <path stroke="#F9F9F9" stroke-linecap="round" stroke-linejoin="round" stroke-width="2" d="M10 10 6.44 7.033c-.53-.441-.794-.662-.984-.932a2.5 2.5 0 0 1-.37-.79C5 4.994 5 4.65 5 3.96V1.667M10 10l3.56-2.967c.53-.441.794-.662.984-.932a2.5 2.5 0 0 0 .37-.79C15 4.994 15 4.65 15 3.96V1.667M10 10l-3.56 2.967c-.53.441-.794.662-.984.932a2.5 2.5 0 0 0-.37.79C5 15.006 5 15.35 5 16.04v2.293M10 10l3.56 2.967c.53.441.794.662.984.932a2.5 2.5 0 0 1 .37.79c.086.318.086.662.086 1.351v2.293M3.333 1.667h13.334M3.333 18.333h13.334"/>
    </symbol>
    <symbol id="icon-pie-chart" fill="none" viewBox="0 0 20 20">
        <g stroke="#F9F9F9" stroke-linecap="round" stroke-linejoin="round" stroke-width="2" clip-path="url(#a)">
            <path d="M14.333 11.667c.231 0 .347 0 .44.05a.442.442 0 0 1 .184.204c.041.098.03.202.01.411a6.666 6.666 0 1 1-7.3-7.299c.21-.02.314-.031.412.01.081.035.16.107.203.184.051.093.051.209.051.44V11c0 .233 0 .35.046.44.04.078.104.141.182.181.09.046.206.046.44.046h5.332Z" opacity=".8"/>
            <path d="M11.667 2.333c0-.23 0-.346.051-.44a.442.442 0 0 1 .203-.183c.098-.041.202-.031.411-.01A6.667 6.667 0 0 1 18.3 7.668c.021.209.032.313-.01.411a.442.442 0 0 1-.183.203c-.094.051-.21.051-.44.051h-5.334c-.233 0-.35 0-.439-.045a.416.416 0 0 1-.182-.182c-.045-.09-.045-.206-.045-.44V2.334Z"/>
        </g>
        <defs>
            <clipPath id="a">
                <path fill="#fff" d="M0 0h20v20H0z"/>
            </clipPath>
        </defs>
    </symbol>
    <symbol id="icon-paper-clip" fill="none" viewBox="0 0 18 18">
        <path fill="#F9F9F9" d="M15.806 10.631 7.37 2.194C5.963.73 3.656.73 2.194 2.137a3.6 3.6 0 0 0 0 5.175l.056.057L3.825 9l.788-.788-1.632-1.63c-.956-.957-.956-2.588 0-3.545.957-.956 2.588-1.012 3.544-.056l.056.056 8.381 8.382c1.013.956 1.013 2.587.057 3.543-.957 1.013-2.588 1.013-3.544.057l-.056-.056L7.256 10.8c-.562-.563-.506-1.463 0-1.969a1.466 1.466 0 0 1 1.969 0l2.306 2.306.788-.787-2.363-2.363a2.498 2.498 0 0 0-3.543.113c-.9.956-.9 2.475 0 3.488l4.218 4.218c1.406 1.463 3.713 1.463 5.175.057 1.463-1.407 1.463-3.77 0-5.232 0 .056 0 0 0 0Z"/>
    </symbol>
    <symbol id="icon-log-in" fill="none" viewBox="0 0 24 24">
        <path stroke="#E3E3E3" stroke-linecap="round" stroke-linejoin="round" stroke-width="2" d="m14 17 5-5-5-5M19 12H5"/>
    </symbol>
    <symbol id="icon-eye-opened" fill="none" viewBox="0 0 20 20">
        <path stroke="#F9F9F9" stroke-linecap="round" stroke-linejoin="round" stroke-width="1.3" d="M.833 10S4.167 3.333 10 3.333 19.167 10 19.167 10 15.833 16.667 10 16.667.833 10 .833 10Z"/>
        <path stroke="#F9F9F9" stroke-linecap="round" stroke-linejoin="round" stroke-width="1.3" d="M10 12.5a2.5 2.5 0 1 0 0-5 2.5 2.5 0 0 0 0 5Z"/>
    </symbol>
    <symbol id="icon-eye-closed" fill="none" viewBox="0 0 20 20">
        <g stroke="#F9F9F9" stroke-linecap="round" stroke-linejoin="round" stroke-width="1.3" clip-path="url(#a)">
            <path d="M14.95 14.95A8.392 8.392 0 0 1 10 16.667C4.167 16.667.833 10 .833 10A15.375 15.375 0 0 1 5.05 5.05m3.2-1.517a7.6 7.6 0 0 1 1.75-.2c5.833 0 9.167 6.667 9.167 6.667a15.418 15.418 0 0 1-1.8 2.658m-5.6-.891a2.5 2.5 0 1 1-3.534-3.534M.833.833l18.334 18.334"/>
        </g>
        <defs>
            <clipPath id="a">
            <path fill="#fff" d="M0 0h20v20H0z"/>
            </clipPath>
        </defs>
    </symbol>
    <symbol id="icon-error" fill="none" viewBox="0 0 20 20">
        <g clip-path="url(#a)">
            <path fill="#E90516" fill-rule="evenodd" d="M10 18.125a8.125 8.125 0 1 0 0-16.25 8.125 8.125 0 0 0 0 16.25ZM10 20a10 10 0 1 0 0-20 10 10 0 0 0 0 20Zm1.25-6.25a1.25 1.25 0 1 1-2.5 0 1.25 1.25 0 0 1 2.5 0Zm-.313-7.813a.938.938 0 0 0-1.874 0v4.375a.937.937 0 0 0 1.874 0V5.939Z" clip-rule="evenodd"/>
        </g>
        <defs>
            <clipPath id="a">
            <path fill="#fff" d="M0 0h20v20H0z"/>
            </clipPath>
        </defs>
    </symbol>
    <!-- <symbol id="icon-error" fill="none" viewBox="0 0 20 20">
        <g clip-path="url(#a)">
            <path fill="#E90516" fill-rule="evenodd" d="M10 18.125a8.125 8.125 0 1 0 0-16.25 8.125 8.125 0 0 0 0 16.25ZM10 20a10 10 0 1 0 0-20 10 10 0 0 0 0 20Zm1.25-6.25a1.25 1.25 0 1 1-2.5 0 1.25 1.25 0 0 1 2.5 0Zm-.313-7.813a.938.938 0 0 0-1.874 0v4.375a.937.937 0 0 0 1.874 0V5.939Z" clip-rule="evenodd"/>
        </g>
        <defs>
            <clipPath id="a">
                <path fill="#fff" d="M0 0h20v20H0z"/>
            </clipPath>
        </defs>
    </symbol> -->
    <symbol id="icon-success" fill="none" viewBox="0 0 20 20">
        <g fill="#30B94D" clip-path="url(#a)">
            <path d="M9.375 13.6 6 9.8l1.125-1.267 2.25 2.533L13.875 6 15 7.267l-5.625 6.331v.002Z"/>
            <path fill-rule="evenodd" d="M0 10C0 4.477 4.477 0 10 0s10 4.477 10 10-4.477 10-10 10S0 15.523 0 10Zm10 8.182a8.181 8.181 0 1 1 0-16.363 8.181 8.181 0 0 1 0 16.363Z" clip-rule="evenodd"/>
        </g>
        <defs>
            <clipPath id="a">
                <path fill="#fff" d="M0 0h20v20H0z"/>
            </clipPath>
        </defs>
    </symbol>
    <symbol id="icon-reading-progress-filled" fill="none" viewBox="0 0 189 189">
        <path fill="#1F1F1F" d="M179.202 95.097c0 46.392-37.608 84-84 84s-84-37.608-84-84c0-46.391 37.608-84 84-84s84 37.608 84 84Zm-152.88 0c0 38.042 30.839 68.88 68.88 68.88 38.042 0 68.88-30.838 68.88-68.88 0-38.041-30.838-68.88-68.88-68.88-38.041 0-68.88 30.839-68.88 68.88Z"/>
        <path fill="#30B94D" d="M179.202 95.097c0 46.392-37.608 84-84 84s-84-37.608-84-84c0-46.391 37.608-84 84-84s84 37.608 84 84Zm-152.88 0c0 38.042 30.839 68.88 68.88 68.88 38.042 0 68.88-30.838 68.88-68.88 0-38.041-30.838-68.88-68.88-68.88-38.041 0-68.88 30.839-68.88 68.88Z"/>
    </symbol>
    <symbol id="icon-reading-progress-not-filled" fill="none" viewBox="0 0 116 117">
        <path fill="#1F1F1F" d="M116 59c0 32.032-25.968 58-58 58S0 91.032 0 59 25.968 1 58 1s58 25.968 58 58ZM10.44 59c0 26.267 21.293 47.56 47.56 47.56 26.267 0 47.56-21.293 47.56-47.56 0-26.267-21.293-47.56-47.56-47.56-26.267 0-47.56 21.293-47.56 47.56Z"/>
        <path fill="#30B94D" d="M57.474 5.619C57.456 2.81 59.723.496 62.52.73a56.5 56.5 0 0 1 41.574 23.92c1.609 2.302.748 5.425-1.689 6.821-2.437 1.396-5.522.533-7.177-1.737a46.332 46.332 0 0 0-32.647-18.784c-2.794-.29-5.09-2.524-5.108-5.332Z"/>
    </symbol>
    <symbol id="icon-reading-chart" fill="none" viewBox="0 0 60 25">
        <path fill="#30B94D" fill-opacity=".2" d="M60 1 1 9.421V25h59V1Z"/>
        <rect width="60" height="3" fill="#30B94D" rx="1" transform="scale(-1 1) rotate(9.184 -29.76 -370.536)"/>
    </symbol>
    <symbol id="icon-square" fill="none" viewBox="0 0 20 20">
        <rect width="20" height="20" fill="#F9F9F9" rx="4"/>
        <rect width="12" height="12" x="4" y="4" fill="#141414" rx="2"/>
    </symbol>
    <symbol id="icon-square-grey" fill="none" viewBox="0 0 20 20">
        <rect width="20" height="20" fill="#F9F9F9" rx="4"/>
        <rect width="12" height="12" x="4" y="4" fill="#141414" rx="2"/>
    </symbol>
    <symbol id="icon-trash-bin" fill="none" viewBox="0 0 14 14">
        <path stroke="#686868" stroke-linecap="round" stroke-linejoin="round" d="M1.75 3.5h10.5M11.083 3.5v8.167a1.167 1.167 0 0 1-1.166 1.166H4.083a1.167 1.167 0 0 1-1.166-1.166V3.5m1.75 0V2.333a1.167 1.167 0 0 1 1.166-1.166h2.334a1.167 1.167 0 0 1 1.166 1.166V3.5M5.833 6.417v3.5M8.167 6.417v3.5"/>
    </symbol>
    <symbol id='icon-trash-bin-red' fill="none" viewBox="0 0 14 14">
        <path stroke="#E85050" stroke-linecap="round" stroke-linejoin="round" d="M1.75 3.5h10.5M11.083 3.5v8.167a1.167 1.167 0 0 1-1.166 1.166H4.083a1.167 1.167 0 0 1-1.166-1.166V3.5m1.75 0V2.333a1.167 1.167 0 0 1 1.166-1.166h2.334a1.167 1.167 0 0 1 1.166 1.166V3.5M5.833 6.417v3.5M8.167 6.417v3.5"/>
    </symbol>
    <symbol id='icon-logo' fill="none" viewBox="0 0 42 17" >
        <path fill="#F9F9F9" d="M0 11V0h12.89c1.753 0 3.46.558 4.873 1.594a6.216 6.216 0 0 1 1.962 2.393l1.491 3.205a21.673 21.673 0 0 1 2.155-4.003l.074-.108c.245-.361.527-.696.839-1.001l.635-.62a4.313 4.313 0 0 1 1.444-.933l.055-.022A7.366 7.366 0 0 1 29.1 0H42v11H0ZM0 13h42v4H0z"/>
    </symbol>
    <symbol id='icon-burger-menu' fill="none" viewBox="0 0 28 28">
        <path stroke="#F9F9F9" stroke-linecap="round" stroke-linejoin="round" stroke-width="2" d="M3.5 14h21m-21-7h21m-14 14h14"/>
    </symbol>
    <symbol id='icon-close' fill="none" viewBox="0 0 28 28">
        <path stroke="#F9F9F9" stroke-linecap="round" stroke-linejoin="round" stroke-width="2" d="M21 7 7 21M7 7l14 14"/>
    </symbol>
    <symbol id='icon-border' viewBox="0 0 44 4" fill="none">
        <path d="M2 2H40" stroke="#4F92F7" stroke-linecap="round"/>
    </symbol>
    <symbol id='icon-arrow-right' fill="none" viewBox="0 0 24 24">
        <path stroke="#F9F9F9" stroke-linecap="round" stroke-linejoin="round" stroke-width="2" d="m14 17 5-5-5-5M19 12H5"/>
    </symbol>
    <symbol id='icon-chevron-right' fill="none" viewBox="0 0 6 10">
        <path stroke-linecap="round" stroke-linejoin="round" stroke-width="1.5" d="m1 1 4 4-4 4"/>
    </symbol>
    <symbol id='icon-chevron-left' fill="none" viewBox="0 0 6 10">
        <path stroke-linecap="round" stroke-linejoin="round" stroke-width="1.5" d="M5 9 1 5l4-4"/>
    </symbol>
    <symbol id='icon-chevron-down' fill="none" viewBox="0 0 10 6">
        <path stroke="#F9F9F9" stroke-linecap="round" stroke-linejoin="round" stroke-width="1.5" d="m1 1 4 4 4-4"/>
    </symbol>
    
    <symbol id='icon-progress-circle' viewBox="-25 -25 250 250" version="1.1">
        <!-- stroke-dasharray='565.48' -->
        <circle r="113" cx="100" cy="100" fill="transparent" stroke="#1f1f1f" stroke-dasharray="710.20px" stroke-dashoffset="0"></circle>
        <circle r="113" cx="100" cy="100" stroke="#30b94d" stroke-linecap="round"  fill="transparent" stroke-dasharray="710.20px"></circle>
    </symbol>
    
  </defs>
</svg>